<svg xmlns="http://www.w3.org/2000/svg" width="18" height="18" viewBox="0 0 18 18">
    <g fill="#954B97" fill-rule="evenodd">
        <path d="M8.91 11.821a.82.82 0 1 0 0 1.64.82.82 0 0 0 0-1.64M8.91 10.182a.66.66 0 0 0 .66-.66V4.359a.66.66 0 0 0-1.32 0v5.163c0 .365.295.66.66.66"/>
        <path d="M16.498 11.367c0 .443-.172.858-.485 1.171l-3.475 3.475a1.644 1.644 0 0 1-1.171.485H6.452c-.442 0-.858-.172-1.17-.485l-3.476-3.475a1.645 1.645 0 0 1-.485-1.171V6.452c0-.442.172-.858.485-1.17L5.28 1.805a1.646 1.646 0 0 1 1.171-.485h4.915c.442 0 .858.172 1.17.485l3.476 3.475c.313.313.485.729.485 1.171v4.915zm.45-7.02L13.471.872A2.956 2.956 0 0 0 11.367 0H6.452C5.657 0 4.91.31 4.347.872L.872 4.347A2.958 2.958 0 0 0 0 6.452v4.915c0 .795.31 1.543.872 2.105l3.475 3.475c.562.563 1.31.872 2.105.872h4.915c.795 0 1.543-.31 2.105-.872l3.475-3.475c.563-.562.872-1.31.872-2.105V6.452c0-.795-.31-1.542-.872-2.105z"/>
    </g>
</svg>
