<svg xmlns="http://www.w3.org/2000/svg" width="18" height="12" viewBox="0 0 18 12">
    <g fill="#9B9B9B" fill-rule="evenodd">
        <path d="M11.043 8.154c0 .659-.504 1.195-1.122 1.195H7.887c-.619 0-1.122-.536-1.122-1.195V6.83c0-.422.213-.817.557-1.03l.095-.06v-.397c0-.872.667-1.582 1.487-1.582.82 0 1.487.71 1.487 1.582v.397l.095.06c.343.213.557.608.557 1.03v1.325zm3.834-3.857C14.85 1.923 13.057 0 10.857 0 9.78 0 8.769.457 8.02 1.27a2.847 2.847 0 0 0-1.07-.21c-1.283 0-2.406.864-2.845 2.123l-.086-.001C1.803 3.182 0 5.133 0 7.532c0 1.05.35 2.066.988 2.857a3.963 3.963 0 0 0 2.247 1.41.565.565 0 0 0 .296.084h10.746c1.947 0 3.53-1.714 3.53-3.82 0-1.886-1.268-3.457-2.93-3.766z"/>
        <path d="M9.575 5.635h.192v-.293c0-.506-.387-.918-.863-.918s-.863.412-.863.918v.293h1.534zM9.92 6.3H7.888c-.27 0-.498.242-.498.53v1.324c0 .288.228.53.498.53h2.034c.27 0 .498-.242.498-.53V6.83c0-.287-.229-.53-.498-.53"/>
    </g>
</svg>
