<svg xmlns="http://www.w3.org/2000/svg" xmlns:xlink="http://www.w3.org/1999/xlink" width="28" height="28" viewBox="0 0 43 43">
    <defs>
        <path id="a" d="M13.288 43c-4.877 0-7.68 0-10.484-2.804C0 37.392 0 34.59 0 29.712V13.288c0-4.877 0-7.68 2.804-10.484C5.608 0 8.41 0 13.288 0h16.424c4.877 0 7.68 0 10.484 2.804C43 5.608 43 8.41 43 13.288v16.424c0 4.877 0 7.68-2.804 10.484C37.392 43 34.59 43 29.712 43H13.288z"/>
    </defs>
    <g fill="none" fill-rule="evenodd">
        <mask id="b" fill="#fff">
            <use xlink:href="#a"/>
        </mask>
        <use fill="#00A9E0" xlink:href="#a"/>
        <path fill="#FFF" d="M6.355 5.538c-.495.007-1.41.252-1.827 1.956a5.816 5.816 0 0 0-.096 2.44 9.35 9.35 0 0 0 .57 1.988c.058.14.15.285.22.374.204.257.542.24.685.17.155-.076.333-.26.269-.681a5.567 5.567 0 0 0-.172-.667c-.155-.507-.362-1.12-.38-1.556-.024-.583.205-.66.358-.693.257-.057.473.225.677.579.244.422.663 1.17 1.005 1.74.308.517.877 1.069 1.79 1.03.931-.038 1.618-.393 1.972-1.512.264-.837.444-1.462.735-2.103.333-.736.779-1.13 1.154-1.01.348.112.435.452.439.952.003.443-.048.93-.088 1.289-.014.13-.04.391-.03.537.022.285.145.57.467.616.342.048.617-.225.727-.556.043-.13.08-.33.1-.472.1-.715.126-1.195.08-1.926-.052-.856-.22-1.636-.512-2.31-.279-.646-.728-1.06-1.303-1.096-.637-.041-1.368.382-1.751 1.202-.354.756-.637 1.532-.808 1.928-.174.401-.43.649-.823.69-.48.05-.895-.298-1.198-.796-.265-.433-.789-1.26-1.07-1.537-.263-.26-.564-.587-1.19-.576M12.611 16.094c-.406.42-.626.98-.628 1.564-.005 1.551-.015 5.138-.015 9.487 0 5.848 9.493 8.956 9.493 8.956s9.482-3.394 9.482-8.956v-9.478a2.26 2.26 0 0 0-.632-1.576c-1.12-1.153-4.497-3.079-8.85-3.079-4.355 0-7.737 1.93-8.85 3.082" mask="url(#b)"/>
        <path fill="#5BC500" d="M22.94 24.027l.475 4.734h-3.834l.475-4.743a2.914 2.914 0 0 1-1.471-2.535 2.92 2.92 0 0 1 2.915-2.925 2.92 2.92 0 0 1 2.915 2.925c0 1.09-.594 2.04-1.475 2.544" mask="url(#b)"/>
    </g>
</svg>
