<svg xmlns="http://www.w3.org/2000/svg" width="18" height="16" viewBox="0 0 18 16">
    <path fill="#00A9E0" fill-rule="evenodd" d="M5.42 1.443c-.42 0-.844.067-1.261.205C2.84 2.082 1.876 3.126 1.58 4.44a4.901 4.901 0 0 0 .625 3.765 13.712 13.712 0 0 0 2.52 2.946l.006.005a29.23 29.23 0 0 0 4.272 3.173c2.17-1.347 3.849-2.667 5.266-4.14.004-.002.007-.006.01-.01a9.621 9.621 0 0 0 1.867-2.62c.195-.407.323-.844.38-1.295a.889.889 0 0 1 .011-.067l.013-.051V4.999a7.523 7.523 0 0 0-.166-.755c-.529-1.576-1.555-2.47-3.137-2.735-1.41-.236-2.593.196-3.616 1.32a.72.72 0 0 1-1.12.133c-.082-.08-.158-.16-.232-.236-.128-.132-.25-.257-.37-.36a3.794 3.794 0 0 0-2.49-.923m3.587 14.419a.924.924 0 0 1-.517-.158 30.729 30.729 0 0 1-4.72-3.473A15.148 15.148 0 0 1 .984 8.978a6.348 6.348 0 0 1-.814-4.86C.581 2.309 1.902.873 3.706.279c1.809-.595 3.733-.223 5.146.995.054.046.105.094.156.141 1.265-1.15 2.8-1.608 4.478-1.327 2.105.352 3.583 1.638 4.275 3.72a9.187 9.187 0 0 1 .225 1.02.73.73 0 0 1 .01.114v1.322c0 .085-.016.169-.045.249-.08.58-.25 1.143-.503 1.672a11.07 11.07 0 0 1-2.142 3.01c-1.554 1.613-3.39 3.046-5.778 4.506a.922.922 0 0 1-.522.162"/>
</svg>
