<svg xmlns="http://www.w3.org/2000/svg" width="15" height="20" viewBox="0 0 15 20">
    <path fill="#00A9E0" fill-rule="evenodd" d="M7.407 12.444c-1.6 0-2.903-1.337-2.903-2.981s1.302-2.981 2.903-2.981c1.6 0 2.902 1.337 2.902 2.981s-1.302 2.981-2.902 2.981zm3.162 4.083a.634.634 0 0 0-.09.056c-1.202.886-2.566 1.544-3.105 1.79a11.276 11.276 0 0 1-2.904-1.725c-2.057-1.693-3.099-3.834-3.099-6.364V3.388c.21-.201.628-.555 1.274-.905 1.637-.889 3.46-1.075 4.7-1.075 3.288 0 5.424 1.493 6.076 2.02l.033 6.79c-.07 1.337-.332 2.55-.767 3.586l-1.624-1.668a.783.783 0 0 0-.075-.066c.51-.737.811-1.636.811-2.607 0-2.488-1.97-4.512-4.392-4.512-2.423 0-4.393 2.024-4.393 4.512 0 2.488 1.97 4.512 4.393 4.512.945 0 1.82-.31 2.538-.833.02.026.04.052.064.076l1.918 1.969-.015.022c-.681.951-1.342 1.317-1.343 1.318zm4.221-13.43a.712.712 0 0 0-.211-.505C14.472 2.486 11.894 0 7.345 0 2.371 0 .248 2.54.16 2.65A.715.715 0 0 0 0 3.1v7.184c0 2.936 1.25 5.517 3.612 7.462 1.757 1.446 3.502 2.029 3.576 2.053a.674.674 0 0 0 .467-.018c.079-.034 1.932-.816 3.59-2.03.447-.257 3.307-2.113 3.579-7.48v-.04l-.034-7.134z"/>
</svg>
