<svg xmlns="http://www.w3.org/2000/svg" width="17" height="20" viewBox="0 0 17 20">
    <g fill="#00A9E0" fill-rule="evenodd">
        <path d="M14.72 17.801c0 .366-.309.675-.675.675H2.14a.684.684 0 0 1-.675-.675V9.388c0-.367.31-.676.675-.676h11.906c.366 0 .676.31.676.676V17.8zM4.236 5.321a3.857 3.857 0 0 1 7.714 0v1.927H4.235V5.321zm9.178 1.927V5.321A5.327 5.327 0 0 0 8.093 0 5.327 5.327 0 0 0 2.77 5.321v1.927H2.14C.963 7.248 0 8.211 0 9.388V17.8c0 1.177.963 2.14 2.14 2.14h11.905c1.177 0 2.14-.963 2.14-2.14V9.388c0-1.177-.963-2.14-2.14-2.14h-.632z"/>
        <path d="M8.024 11.4a1.183 1.183 0 0 0-.733 2.113v1.154a.732.732 0 0 0 1.464 0v-1.154a1.183 1.183 0 0 0-.732-2.113"/>
    </g>
</svg>
