<svg xmlns="http://www.w3.org/2000/svg" width="19" height="17" viewBox="0 0 19 17">
    <g fill="#00A9E0" fill-rule="evenodd">
        <path d="M14.986 0H5.738a3.76 3.76 0 0 0-3.233 1.868.679.679 0 0 0 .237.925c.317.187.727.081.914-.24a2.418 2.418 0 0 1 2.082-1.202h9.248c1.331 0 2.414 1.093 2.414 2.439v9.304c0 1.345-1.083 2.438-2.414 2.438H5.738a2.42 2.42 0 0 1-2.084-1.205.666.666 0 0 0-.914-.24.677.677 0 0 0-.238.923 3.76 3.76 0 0 0 3.236 1.872h9.248c2.068 0 3.75-1.7 3.75-3.788V3.79c0-2.09-1.682-3.79-3.75-3.79"/>
        <path d="M9.415 7.849H2.348l1.973-1.885a.68.68 0 0 0 .027-.954.664.664 0 0 0-.945-.028L.21 8.034c-.003.002-.003.006-.006.008-.006.004-.01.01-.016.016l-.009.007c-.022.024-.03.055-.05.08l-.021.033c-.017.027-.04.05-.052.08-.003.005-.003.013-.007.02-.015.04-.017.082-.025.123-.007.038-.02.075-.022.114L0 8.524l.002.011c.001.041.016.08.024.12.007.039.009.08.024.118l.008.02c.01.028.033.048.048.074.01.017.02.032.033.048.017.024.025.05.044.073l.006.005.019.016c.002.002.003.007.006.009l3.071 2.884a.658.658 0 0 0 .944-.034.678.678 0 0 0-.034-.953L2.368 9.2h7.047a.672.672 0 0 0 .667-.675c0-.373-.299-.675-.668-.675"/>
    </g>
</svg>
