<svg xmlns="http://www.w3.org/2000/svg" width="38" height="40" viewBox="0 0 38 40">
    <g fill="#757575" fill-rule="evenodd">
        <path d="M28.189 30.73a12.343 12.343 0 0 1-.522.64 12.638 12.638 0 0 1-.496.532 12.971 12.971 0 0 1-.457.431 11.914 11.914 0 0 1-.4.334 8.913 8.913 0 0 1-.328.244 4.045 4.045 0 0 1-.241.16 2.123 2.123 0 0 1-.137.083l-.012.006a.986.986 0 0 0-.177.108 24.34 24.34 0 0 1-1.173.792 46.212 46.212 0 0 1-.592.37 25.656 25.656 0 0 1-.588.348c-.097.058-.194.113-.29.168-.096.054-.191.108-.286.16l-.282.157a25.095 25.095 0 0 1-.548.293l-.263.138-.257.132-.247.124-.237.118-.23.112c-.075.036-.147.07-.218.106l-.207.096-.193.092-.18.082-.437.197a22.837 22.837 0 0 1-2.95-1.414 23.097 23.097 0 0 1-2.284-1.489 20.89 20.89 0 0 1-1.766-1.47 18.625 18.625 0 0 1-1.13-1.157 16.493 16.493 0 0 1-1.534-2.006 15.494 15.494 0 0 1-.866-1.526 14.588 14.588 0 0 1-1.371-4.545 15.9 15.9 0 0 1-.139-2.145V9.238l11.115 11.084-1.444 1.44-3.742-3.677a1.378 1.378 0 0 0-1.945.014 1.37 1.37 0 0 0 .016 1.94l4.713 4.63c.267.264.616.395.964.395.352 0 .704-.134.972-.401l2.41-2.403 8.195 8.174c-.071.1-.143.2-.216.296m8.951 4.2L2.551.435a1.498 1.498 0 0 0-2.113 0 1.487 1.487 0 0 0 0 2.108L4.476 6.57a1.36 1.36 0 0 0-.074.442v13.988a19.163 19.163 0 0 0 .163 2.505 18.286 18.286 0 0 0 .462 2.307 17.665 17.665 0 0 0 1.165 3.085 18.382 18.382 0 0 0 1.024 1.805 18.625 18.625 0 0 0 1.169 1.61 19.924 19.924 0 0 0 1.925 2.065 21.8 21.8 0 0 0 1.336 1.156 22.89 22.89 0 0 0 1.33.99 25.837 25.837 0 0 0 4.855 2.64 23.368 23.368 0 0 0 .595.231l.201.073.135.046.052.017a1.39 1.39 0 0 0 .953-.041l1.007-.441.194-.09.207-.097.22-.104a28.74 28.74 0 0 0 .476-.231l.255-.126.264-.134c.09-.045.18-.092.273-.14a36.838 36.838 0 0 0 .57-.3l.297-.16.301-.167a23.512 23.512 0 0 0 .62-.353 59.417 59.417 0 0 0 .634-.377 49.58 49.58 0 0 0 .644-.402 33.542 33.542 0 0 0 .971-.646c.084-.058.168-.117.251-.177l.01-.004.11-.065a7.234 7.234 0 0 0 .497-.323 14.727 14.727 0 0 0 .448-.333 13.305 13.305 0 0 0 .523-.436 12.843 12.843 0 0 0 .887-.865 14.39 14.39 0 0 0 .947-1.124l4.654 4.642a1.492 1.492 0 1 0 2.113-2.107M24.992 13.615L22.8 15.8a1.37 1.37 0 1 0 .971 2.34c.352 0 .704-.133.972-.401l2.192-2.185a1.37 1.37 0 0 0 0-1.939 1.378 1.378 0 0 0-1.944 0"/>
        <path d="M11.755 4.91a16.9 16.9 0 0 1 1.07-.348 19.018 19.018 0 0 1 1.187-.306 21.727 21.727 0 0 1 3.5-.49 25.19 25.19 0 0 1 2.377-.037 24.51 24.51 0 0 1 1.445.096 21.852 21.852 0 0 1 2.628.43 21.685 21.685 0 0 1 1.179.307 18.806 18.806 0 0 1 1.088.35 23.307 23.307 0 0 1 1.458.583 19.465 19.465 0 0 1 1.955 1.01 18.723 18.723 0 0 1 .875.558 17.143 17.143 0 0 1 .644.465c.056.042.108.082.156.121l.066 13.225a24.8 24.8 0 0 1-.27 2.558c-.042.263-.09.526-.14.782a1.37 1.37 0 0 0 1.35 1.639c.642 0 1.216-.452 1.346-1.104a25.071 25.071 0 0 0 .392-2.766 30.053 30.053 0 0 0 .071-1.083l-.068-13.894a1.374 1.374 0 0 0-.428-.986l-.02-.02a.559.559 0 0 1-.02-.017l-.04-.037-.09-.08-.113-.097a7.383 7.383 0 0 0-.316-.259 11.282 11.282 0 0 0-.428-.327 17.465 17.465 0 0 0-1.193-.809 20.8 20.8 0 0 0-2.104-1.15 23.938 23.938 0 0 0-1.029-.458 23.674 23.674 0 0 0-1.737-.641 22.47 22.47 0 0 0-1.969-.542 22.264 22.264 0 0 0-2.19-.395 25.908 25.908 0 0 0-1.581-.157 27.276 27.276 0 0 0-3.466 0 26.384 26.384 0 0 0-2.452.268 21.905 21.905 0 0 0-1.479.282 21.417 21.417 0 0 0-2.59.752 1.37 1.37 0 0 0-.825 1.755 1.376 1.376 0 0 0 1.76.823"/>
    </g>
</svg>
