<svg xmlns="http://www.w3.org/2000/svg" width="45" height="39" viewBox="0 0 45 39">
    <g fill="#00A9E0" fill-rule="evenodd">
        <path d="M41.834 17.33l-.022.071-4.964 16.805a2.13 2.13 0 0 1-1.999 1.398H14.176a2.703 2.703 0 0 1-2.7-2.7V16.687l12.552-13.07c1.219-.894 2.478-.541 3.26.1.792.648 1.39 1.831.72 3.222l-3.172 5.334a2.29 2.29 0 0 0 .047 2.341 2.29 2.29 0 0 0 1.96 1.092h.038l13.574-.336c.478.004.911.23 1.19.62.28.395.35.883.19 1.34zM8.394 33.768a1.838 1.838 0 0 1-1.836 1.836h-1.64a1.838 1.838 0 0 1-1.835-1.836V17.513c0-1.013.824-1.836 1.836-1.836h1.639c1.013 0 1.836.823 1.836 1.836v16.255zm35.762-19.565a4.565 4.565 0 0 0-3.714-1.915H40.4l-12.166.301 2.454-4.127a1.53 1.53 0 0 0 .053-.098c1.233-2.461.631-5.287-1.5-7.032-2.13-1.744-5.019-1.779-7.19-.084a1.648 1.648 0 0 0-.162.147L9.885 13.894a4.902 4.902 0 0 0-3.327-1.3h-1.64A4.924 4.924 0 0 0 0 17.514v16.254a4.924 4.924 0 0 0 4.919 4.918h1.639a4.904 4.904 0 0 0 3.629-1.603 5.76 5.76 0 0 0 3.99 1.603h20.672a5.216 5.216 0 0 0 4.92-3.494l.024-.072 4.965-16.814a4.567 4.567 0 0 0-.602-4.103z"/>
        <path d="M3 15h5.4v21.6H3z"/>
    </g>
</svg>
