<svg xmlns="http://www.w3.org/2000/svg" width="17" height="15" viewBox="0 0 17 15">
    <g fill="none" fill-rule="evenodd" stroke="#F59C00" stroke-linecap="round" stroke-width="1.08">
        <path d="M7.72 11.202a2.4 2.4 0 1 1-4.8 0 2.4 2.4 0 0 1 4.8 0zM14.92 11.202a2.4 2.4 0 1 1-4.8 0 2.4 2.4 0 0 1 4.8 0zM7.72 11.202s.84-1.08 2.4 0M1 6.042h15.36M13 5.922s-.09-4.98-1.53-4.86l-1.637.578c-.002 0-.004 0-.006.002a4.745 4.745 0 0 1-.838.175c-.237.03-.477.013-.709-.047a41.379 41.379 0 0 1-.724-.19L5.92 1.002c-1.44-.12-1.558 5.04-1.558 5.04"/>
    </g>
</svg>
