<svg xmlns="http://www.w3.org/2000/svg" width="20" height="20" viewBox="0 0 20 20">
    <path fill="#00A9E0" fill-rule="evenodd" d="M10 0c5.523 0 10 4.477 10 10s-4.477 10-10 10S0 15.523 0 10 4.477 0 10 0zm0 1.583a8.417 8.417 0 1 0 0 16.834 8.417 8.417 0 0 0 0-16.834zm0 11.167a1.208 1.208 0 1 1 0 2.416 1.208 1.208 0 0 1 0-2.416zm.39-7.708c1.522 0 2.596 1.074 2.596 2.597 0 1.176-.435 1.707-1.46 2.319l-.107.064a2.354 2.354 0 0 0-.47.343c-.179.179-.2.55-.151.7a.792.792 0 1 1-1.54.37c-.17-.714-.016-1.603.571-2.19.243-.242.457-.39.885-.646.19-.114.262-.158.34-.213.265-.188.349-.353.349-.747 0-.647-.367-1.014-1.014-1.014-1.003 0-1.375.372-1.375 1.375A.792.792 0 1 1 7.43 8c0-1.892 1.067-2.958 2.96-2.958z"/>
</svg>
