<svg xmlns="http://www.w3.org/2000/svg" width="21" height="19" viewBox="0 0 21 19">
    <g fill="#00A9E0" fill-rule="evenodd">
        <path d="M4.437 19h10.221a4.165 4.165 0 0 0 3.573-2.044.738.738 0 1 0-1.272-.75 2.678 2.678 0 0 1-2.3 1.316H4.436a2.671 2.671 0 0 1-2.669-2.668V4.674a2.67 2.67 0 0 1 2.669-2.668h10.221a2.68 2.68 0 0 1 2.303 1.319.74.74 0 0 0 1.011.262.736.736 0 0 0 .262-1.01A4.163 4.163 0 0 0 14.658.53H4.437A4.15 4.15 0 0 0 .29 4.674v10.18A4.15 4.15 0 0 0 4.437 19"/>
        <path d="M10.595 10.412h7.81l-2.18 2.063a.739.739 0 0 0 1.013 1.074l3.53-3.339c.004-.002.004-.007.007-.009l.017-.017c.002-.003.007-.004.01-.008.024-.026.034-.06.055-.088.007-.012.016-.024.024-.035.018-.03.044-.056.057-.088.004-.006.004-.015.007-.021.018-.045.02-.09.029-.136.008-.042.022-.082.024-.125L21 9.674l-.002-.012c-.002-.046-.017-.088-.026-.13-.009-.044-.01-.088-.028-.13l-.008-.023c-.012-.03-.037-.052-.053-.08a.53.53 0 0 0-.037-.053c-.018-.026-.027-.056-.048-.08-.003-.002-.006-.003-.007-.005-.007-.006-.014-.011-.02-.018-.003-.003-.004-.007-.008-.01L17.37 5.979a.735.735 0 0 0-1.043.037.737.737 0 0 0 .038 1.042l2.02 1.878h-7.79a.739.739 0 0 0 0 1.477"/>
    </g>
</svg>
