<svg xmlns="http://www.w3.org/2000/svg" width="15" height="20" viewBox="0 0 15 20">
    <g fill="#00A9E0" fill-rule="evenodd">
        <path d="M10.227 6.49L6.392 10.43 4.526 8.541a.673.673 0 0 0-.97.007.718.718 0 0 0 .008.996l2.35 2.378a.674.674 0 0 0 .966-.004l4.316-4.432a.718.718 0 0 0 0-.995.673.673 0 0 0-.969 0"/>
        <path d="M11.912 15.21c-.68.95-1.342 1.316-1.344 1.317a.704.704 0 0 0-.088.055c-1.203.887-2.567 1.545-3.106 1.79a11.276 11.276 0 0 1-2.904-1.725c-2.057-1.692-3.1-3.833-3.1-6.364V3.388c.211-.201.63-.555 1.275-.905 1.637-.889 3.46-1.075 4.7-1.075 3.288 0 5.424 1.493 6.076 2.02l.032 6.79c-.104 2.002-.637 3.728-1.541 4.991zM14.79 3.096a.712.712 0 0 0-.211-.505C14.472 2.486 11.894 0 7.345 0 2.371 0 .248 2.54.159 2.649A.717.717 0 0 0 0 3.1v7.183c0 2.937 1.25 5.518 3.612 7.463 1.757 1.446 3.502 2.029 3.576 2.053a.674.674 0 0 0 .467-.019c.079-.033 1.932-.815 3.59-2.028.446-.258 3.307-2.114 3.578-7.48l.001-.04-.034-7.135z"/>
    </g>
</svg>
