<svg xmlns="http://www.w3.org/2000/svg" width="13" height="21" viewBox="0 0 13 21">
    <g fill="#00A9E0" fill-rule="evenodd">
        <path d="M6.464 16.67a.867.867 0 0 0-.864.87c0 .48.387.87.864.87s.863-.39.863-.87-.386-.87-.863-.87"/>
        <path d="M11.537 18.044c0 .742-.6 1.346-1.338 1.346H2.73a1.344 1.344 0 0 1-1.338-1.346V2.748c0-.743.6-1.347 1.338-1.347h7.47c.738 0 1.338.604 1.338 1.347v15.296zM10.199 0H2.73A2.741 2.741 0 0 0 0 2.748v15.296a2.741 2.741 0 0 0 2.729 2.747h7.47c1.505 0 2.729-1.232 2.729-2.747V2.748C12.928 1.232 11.704 0 10.199 0z"/>
        <path d="M7.541 2.55H5.387a.698.698 0 0 0-.696.701c0 .387.311.7.696.7H7.54a.698.698 0 0 0 .696-.7c0-.387-.312-.7-.696-.7"/>
    </g>
</svg>
