<svg xmlns="http://www.w3.org/2000/svg" width="18" height="17" viewBox="0 0 18 17">
    <path fill="#00A9E0" fill-rule="evenodd" d="M8.727 13.371c.148 0 .297.031.436.093l4.291 1.922-.609-4.262a1.027 1.027 0 0 1 .266-.846l3.18-3.43-4.3-.747a1.05 1.05 0 0 1-.734-.51L8.932 1.547 6.883 5.35a1.05 1.05 0 0 1-.719.53l-4.617.932L4.58 9.908c.22.224.325.529.29.838l-.528 4.618 3.923-1.888c.146-.07.304-.105.462-.105zm5.036 3.462c-.148 0-.296-.03-.435-.093L8.73 14.681l-4.225 2.034a1.067 1.067 0 0 1-1.07-.085 1.034 1.034 0 0 1-.439-.966l.565-4.947L.296 7.383a1.03 1.03 0 0 1-.249-1.029c.114-.362.419-.635.796-.71l4.945-.999L7.994.552c.18-.335.532-.547.916-.552h.015c.379 0 .729.2.916.526l2.491 4.33 4.63.804c.38.066.691.33.815.688.124.36.04.756-.22 1.036l-3.406 3.675.656 4.59c.053.376-.104.75-.412.977a1.062 1.062 0 0 1-.632.207z"/>
</svg>
