<svg xmlns="http://www.w3.org/2000/svg" width="12" height="15" viewBox="0 0 12 15">
    <path fill="#9B9B9B" fill-rule="evenodd" d="M8.952 5.612L5.5 8.934a.558.558 0 0 1-.387.155.557.557 0 0 1-.385-.152L2.85 7.154a.514.514 0 0 1-.005-.746.563.563 0 0 1 .775-.006L5.11 7.818l3.067-2.953a.563.563 0 0 1 .775 0 .514.514 0 0 1 0 .747zm2.873-3.29a.517.517 0 0 0-.169-.379C11.57 1.863 9.51 0 5.872 0 1.896 0 .198 1.905.127 1.986A.516.516 0 0 0 0 2.324v5.385c0 2.2.999 4.135 2.888 5.593 1.404 1.084 2.8 1.521 2.859 1.539a.56.56 0 0 0 .373-.014c.063-.024 1.545-.611 2.87-1.52.357-.194 2.644-1.585 2.862-5.608v-.03l-.027-5.348z"/>
</svg>
