<svg xmlns="http://www.w3.org/2000/svg" width="30" height="40" viewBox="0 0 30 40">
    <g fill="#00A9E0" fill-rule="evenodd">
        <path d="M20.454 12.981l-7.67 7.877-3.732-3.776a1.346 1.346 0 0 0-1.939.014 1.436 1.436 0 0 0 .015 1.992l4.7 4.756a1.348 1.348 0 0 0 1.931-.007l8.634-8.864a1.435 1.435 0 0 0 0-1.991 1.345 1.345 0 0 0-1.939 0"/>
        <path d="M23.823 30.419c-1.36 1.901-2.682 2.633-2.686 2.635-.062.032-.121.07-.178.11-2.405 1.773-5.133 3.09-6.211 3.58a22.552 22.552 0 0 1-5.809-3.45c-4.112-3.384-6.197-7.666-6.197-12.728V6.776c.42-.402 1.256-1.11 2.547-1.81 3.275-1.777 6.92-2.15 9.401-2.15 6.576 0 10.848 2.986 12.151 4.04l.066 13.58c-.209 4.005-1.274 7.456-3.084 9.983zM29.58 6.194a1.424 1.424 0 0 0-.422-1.01C28.943 4.973 23.788 0 14.69 0 4.743 0 .495 5.082.319 5.298A1.434 1.434 0 0 0 0 6.2v14.365c0 5.875 2.498 11.036 7.225 14.926 3.513 2.892 7.004 4.058 7.15 4.106a1.348 1.348 0 0 0 .936-.037c.156-.066 3.862-1.63 7.177-4.058.895-.515 6.615-4.227 7.159-14.96l.002-.08-.069-14.27z"/>
    </g>
</svg>
