<svg xmlns="http://www.w3.org/2000/svg" width="20" height="15" viewBox="0 0 20 15">
    <g fill="#00A9E0" fill-rule="evenodd">
        <path d="M9.993 12.989a.866.866 0 0 0-.862.87c0 .48.386.869.862.869.475 0 .861-.39.861-.87s-.386-.87-.861-.87M9.993 8.842a5.027 5.027 0 0 0-3.594 1.502.705.705 0 0 0 0 .991.69.69 0 0 0 .982 0 3.652 3.652 0 0 1 2.612-1.091c.986 0 1.914.387 2.611 1.091a.688.688 0 0 0 .982 0 .705.705 0 0 0 0-.99 5.026 5.026 0 0 0-3.593-1.503M9.993 4.415c-2.53 0-4.908.994-6.696 2.799a.705.705 0 0 0 0 .99.69.69 0 0 0 .982 0 7.99 7.99 0 0 1 5.714-2.388c2.158 0 4.187.848 5.714 2.389a.689.689 0 0 0 .981 0 .705.705 0 0 0 0-.991 9.365 9.365 0 0 0-6.695-2.799"/>
        <path d="M19.782 4.092A13.69 13.69 0 0 0 9.992 0 13.69 13.69 0 0 0 .204 4.092a.704.704 0 0 0 0 .99.69.69 0 0 0 .98 0 12.32 12.32 0 0 1 8.808-3.68c3.328 0 6.456 1.307 8.808 3.68a.689.689 0 0 0 .982 0 .705.705 0 0 0 0-.99"/>
    </g>
</svg>
