<svg xmlns="http://www.w3.org/2000/svg" width="12" height="15" viewBox="0 0 12 15">
    <g fill="#9B9B9B" fill-rule="evenodd">
        <path d="M11.92 2.124l-.183-.168C11.651 1.876 9.577 0 5.92 0 1.921 0 .21 1.92.14 2.002L0 2.162v5.592c0 2.216 1.005 4.163 2.906 5.63 1.411 1.089 2.815 1.529 2.874 1.547l.206.063.2-.079c.063-.024 1.548-.612 2.878-1.524.17-.093.744-.439 1.337-1.174L8.05 9.954a.568.568 0 0 1-.052-.057 3.586 3.586 0 0 1-2.03.624c-1.936 0-3.512-1.517-3.512-3.382 0-1.864 1.576-3.382 3.512-3.382 1.937 0 3.513 1.518 3.513 3.382a3.28 3.28 0 0 1-.649 1.954c.02.016.04.032.06.05l2.16 2.08c.447-.846.814-1.98.894-3.476l.001-.016-.029-5.607z"/>
        <path d="M3.648 7.14c0 1.231 1.042 2.234 2.321 2.234 1.28 0 2.322-1.003 2.322-2.235S7.249 4.905 5.969 4.905 3.65 5.907 3.65 7.139"/>
    </g>
</svg>
