<svg xmlns="http://www.w3.org/2000/svg" xmlns:xlink="http://www.w3.org/1999/xlink" width="115" height="122" viewBox="0 0 115 122">
    <defs>
        <path id="a" d="M0 0h113.638v19.38H0z"/>
        <path id="c" d="M0 0h115v85.22H0z"/>
    </defs>
    <g fill="none" fill-rule="evenodd">
        <g transform="translate(0 102.265)">
            <mask id="b" fill="#fff">
                <use xlink:href="#a"/>
            </mask>
            <path fill="#00A9E0" d="M62.495 3.17H59.78c-.226 0-.332.088-.332.31l.003 15.298c0 .222.106.31.332.31h2.712c.228 0 .336-.088.336-.31l-.005-15.297c0-.223-.105-.31-.332-.31zm-25.15 10.274c-.262 2.581-1.557 2.984-3.64 2.984h-.086c-2.083 0-3.379-.403-3.638-2.984-.082-.78-.146-1.425-.146-2.322 0-.9.064-1.545.146-2.324.26-2.581 1.555-2.984 3.638-2.984h.087c2.082 0 3.377.403 3.639 2.984.081.78.146 1.424.146 2.324 0 .897-.065 1.543-.146 2.322zm3.047 2.068c.327-1.083.51-2.329.51-4.39 0-2.062-.183-3.31-.51-4.392-.823-2.766-2.995-3.865-6.52-3.865h-.419c-3.524 0-5.696 1.1-6.524 3.865-.322 1.081-.506 2.33-.506 4.392 0 2.061.184 3.307.506 4.39.828 2.764 3 3.868 6.524 3.868h.42c3.524 0 5.696-1.104 6.52-3.868zM17.34 2.865h-.819c-2.356 0-3.92.628-4.678 1.563h-.019c-.757-.935-2.419-1.563-4.775-1.563h-.841c-2.657 0-4.833.927-5.708 2.832-.376.819-.5 1.917-.5 3.104v9.924c0 .217.128.363.35.363h2.674c.22 0 .346-.146.346-.363l.006-8.267c0-1.182.028-2.042.088-2.57.155-1.388 1.179-2.062 3.13-2.062h.224c1.95 0 3.023.674 3.176 2.061.06.529.089 1.389.089 2.571v8.27c0 .218.131.36.353.36h2.681c.22 0 .345-.172.345-.39l.005-8.24c0-1.182.028-2.042.087-2.57.152-1.388 1.224-2.062 3.176-2.062h.223c1.952 0 2.975.674 3.129 2.061.059.529.086 1.389.086 2.571v8.27c0 .225.131.36.352.36H23.2c.22 0 .346-.172.346-.39V8.8c0-1.187-.126-2.285-.502-3.104-.872-1.905-3.051-2.832-5.705-2.832zm69.413 16.223c.23 0 .359-.125.359-.33v-2.272c0-.204-.128-.331-.36-.331h-.359c-1.077 0-1.739-.26-2.142-.69-.536-.566-.647-1.487-.647-2.576v-6.9h2.984c.225 0 .337-.087.337-.308V3.478c0-.223-.112-.309-.337-.309h-2.984V.312c0-.223-.112-.312-.338-.312h-2.712c-.226 0-.33.089-.33.312v12.761c0 2.22.44 3.639 1.411 4.609.912.909 2.336 1.406 4.4 1.406h.718zM70.058 11.95c.731.272 1.34.496 2.063.755 1.553.554 2.216.994 2.216 1.947 0 1.234-1.033 1.888-3.374 1.888h-.084c-1.32 0-2.833-.261-4.163-.688-.275-.089-.425.015-.425.294v2.033c0 .255.042.41.327.51 1.27.439 3.021.687 4.449.687h.109c4.157 0 6.41-1.858 6.41-4.865v-.043c0-1.16-.378-2.21-1.086-2.907-.693-.687-1.746-1.218-3.372-1.824-.868-.326-1.541-.575-2.141-.797-1.35-.495-1.73-.961-1.73-1.659 0-1.154 1.125-1.607 2.937-1.607l.138.001c1.044 0 2.31.151 3.847.432.284.052.444-.011.444-.306V3.713c0-.275-.073-.352-.356-.413-.999-.213-2.81-.435-3.826-.435h-.244c-2.122 0-3.695.396-4.743 1.315-.853.746-1.422 1.873-1.422 3.222l-.002.096c0 1.25.432 2.257 1.17 2.944.69.64 1.62 1.045 2.858 1.508zm-21.815 7.138h2.938c.253 0 .365-.083.469-.277 1.903-3.6 4.813-9.75 5.01-15.328.01-.222-.083-.317-.37-.317l-2.737.002c-.32 0-.408.101-.425.387-.126 2.033-.555 4.393-1.178 6.5-.644 2.18-1.461 4.255-2.245 5.797-.784-1.542-1.603-3.617-2.246-5.797-.625-2.121-1.058-4.498-1.18-6.54-.019-.29-.174-.347-.455-.347h-2.756c-.29 0-.373.136-.35.432.387 5.466 2.077 9.71 5.01 15.223.103.194.259.265.515.265zm65.05-16.225h-1.818c-2.608 0-4.645.908-5.518 2.811-.378.82-.496 1.919-.496 3.106v9.998c0 .222.108.31.334.31h2.713c.225 0 .326-.088.326-.31v-8.365c0-1.181.026-2.042.086-2.572.153-1.386.99-2.04 2.94-2.04h1.444c.234 0 .335-.12.335-.347V3.21c0-.232-.112-.346-.346-.346zM99.19 13.373c0 1.193-.04 1.895-.47 2.394-.457.527-1.267.777-2.366.777h-.534c-2.028 0-3.206-.818-3.206-2.387 0-.717.282-1.356.718-1.735.513-.444 1.268-.662 2.557-.662h.287c.976 0 2.091.098 3.014.342v1.27zm.283-9.857c-.904-.39-2.277-.651-4.053-.651h-.217c-1.083 0-2.557.132-3.977.39-.24.042-.334.168-.334.444v2.037c0 .255.13.343.416.3 1.247-.189 2.533-.318 3.52-.318h.14c1.399 0 2.528.128 3.208.589.678.458 1.014 1.14 1.014 2.623v.439a17.135 17.135 0 0 0-3.395-.361h-.302c-1.887 0-3.661.458-4.792 1.52-.87.814-1.442 2.044-1.442 3.611v.134c0 3.158 2.17 5.103 6.574 5.103h.785c1.73 0 3.376-.517 4.366-1.34 1.139-.947 1.58-2.348 1.58-4.586V8.89c0-3.119-1.211-4.56-3.09-5.374z" mask="url(#b)"/>
        </g>
        <g>
            <mask id="d" fill="#fff">
                <use xlink:href="#c"/>
            </mask>
            <path fill="#00A9E0" d="M21.62 9.871c-5.327.084-15.163 2.723-19.658 21.145C.006 39.044-.75 47.41.923 57.37c1.546 9.187 4.285 17.116 6.13 21.484a19.153 19.153 0 0 0 2.382 4.043c2.188 2.778 5.832 2.6 7.363 1.843 1.669-.825 3.588-2.818 2.893-7.366-.335-2.197-1.303-5.412-1.848-7.2-1.671-5.483-3.899-12.1-4.092-16.813-.259-6.306 2.216-7.13 3.86-7.493 2.765-.61 5.083 2.437 7.286 6.256 2.629 4.56 7.132 12.641 10.807 18.81 3.315 5.571 9.437 11.535 19.268 11.127 10.021-.418 17.407-4.256 21.213-16.342 2.847-9.044 4.789-15.799 7.913-22.718 3.592-7.96 8.381-12.218 12.416-10.918 3.746 1.207 4.68 4.883 4.727 10.287.04 4.78-.511 10.05-.94 13.921-.156 1.404-.438 4.231-.322 5.799.225 3.086 1.555 6.167 5.014 6.66 3.686.524 6.642-2.433 7.823-6.006.465-1.41.863-3.565 1.077-5.094 1.082-7.724 1.364-12.917.876-20.82-.572-9.24-2.371-17.669-5.514-24.961C106.25 4.893 101.419.422 95.227.028c-6.856-.438-14.72 4.13-18.848 12.99-3.803 8.168-6.848 16.55-8.693 20.83-1.873 4.339-4.623 7.014-8.854 7.46-5.174.546-9.628-3.224-12.892-8.599-2.848-4.685-8.487-13.608-11.506-16.606-2.834-2.816-6.072-6.34-12.814-6.232" mask="url(#d)"/>
        </g>
    </g>
</svg>
