<svg xmlns="http://www.w3.org/2000/svg" xmlns:xlink="http://www.w3.org/1999/xlink" width="100" height="77" viewBox="0 0 100 77">
    <defs>
        <path id="a" d="M68.91 0l.206.002c6.78.111 13.058 5.75 13.84 12.484l.017.154c.337 3.198-.366 6.539.68 9.58l.06.167c2.016 5.506 8.77 7.652 12.508 12.213l.089.11c2.898 3.62 3.702 8.806 2.022 13.128l-.05.127c-.977 2.446-2.66 4.675-2.905 7.295l-.013.16c-.192 2.718 1.166 5.375 1.024 8.103l-.007.118c-.262 3.881-3.474 6.95-6.843 8.931l-.15.088c-4.706 2.73-10.152 4.14-15.594 4.14h-.215a30.582 30.582 0 0 1-8.89-1.369l-.28-.089c-4.858-1.566-9.314-4.276-14.256-5.558l-.18-.046c-3.483-.867-6.897-.647-10.336-.428l-.338.022c-1.579.1-3.163.192-4.763.173l-.267-.004c-5.698-.098-11.502-1.086-16.914-2.832l-.174-.057c-5.738-1.874-11.392-4.89-14.703-9.924l-.073-.112C.852 54.165 0 51.229 0 48.362v-.114c.024-3.135 1.07-6.179 3.331-8.353l.13-.123c2.044-1.901 4.781-2.997 6.65-5.074l.112-.125c3.62-4.168 2.732-10.557 4.566-15.788l.067-.186c2.24-6.106 8.713-10.403 15.224-10.077l.23.013c3.593.233 7.054 1.666 10.658 1.713h.3C51.168 10.175 58.946.016 68.891 0h.02z"/>
        <path id="c" d="M0 0h44.8v48.8H0z"/>
    </defs>
    <g fill="none" fill-rule="evenodd">
        <g>
            <mask id="b" fill="#fff">
                <use xlink:href="#a"/>
            </mask>
            <path fill="#66CBEC" d="M-7.2 76.8h112.8V-12H-7.2z" mask="url(#b)"/>
        </g>
        <g transform="translate(34 14)">
            <mask id="d" fill="#fff">
                <use xlink:href="#c"/>
            </mask>
            <path fill="#FFAD33" d="M38.69 12.719c-.31-.168-.372-.505-.185-.785l3.536-5.271c.185-.28.558-.336.868-.168.31.168.372.504.187.785l-3.537 5.271c-.185.224-.62.336-.868.168" mask="url(#d)"/>
            <path fill="#FFAD33" d="M41.384 12.723c-.218.164-.48.055-.61-.219l-2.313-5.26a.634.634 0 0 1 .175-.767c.218-.164.48-.055.61.22l2.312 5.259c.087.274.043.602-.174.767" mask="url(#d)"/>
            <path fill="#FFAD33" d="M38.572 21.522c-.276-.16-.332-.485-.166-.754l3.157-5.064c.166-.27.498-.323.775-.162.277.162.332.485.167.755l-3.158 5.064c-.165.215-.553.323-.775.161M36.8 8.54c0-.323.277-.539.554-.539l6.092.108c.332 0 .554.27.554.539 0 .323-.277.538-.554.538l-6.092-.107a.547.547 0 0 1-.554-.54" mask="url(#d)"/>
            <path fill="#FFAD33" d="M41.384 20.723c-.218.164-.48.055-.61-.219l-2.313-5.26a.633.633 0 0 1 .175-.766c.218-.165.48-.055.61.218l2.312 5.26c.087.274.043.603-.174.767" mask="url(#d)"/>
            <path fill="#FFAD33" d="M36.8 18.328c0-.437.276-.728.554-.728l6.092.145c.332 0 .554.365.554.728 0 .437-.278.727-.554.727l-6.092-.145c-.332 0-.554-.29-.554-.727M38.69 31.12c-.31-.169-.372-.505-.185-.786l3.536-5.272c.185-.28.558-.335.868-.167.31.167.372.504.187.785l-3.537 5.271c-.185.224-.62.336-.868.168" mask="url(#d)"/>
            <path fill="#FFAD33" d="M41.384 31.123c-.218.164-.48.055-.61-.22l-2.313-5.26a.633.633 0 0 1 .175-.765c.218-.165.48-.055.61.218l2.312 5.26c.087.274.043.603-.174.767" mask="url(#d)"/>
            <path fill="#FFAD33" d="M36.8 27.127c0-.437.276-.727.554-.727l6.092.146c.332 0 .554.363.554.727 0 .436-.278.727-.554.727l-6.092-.145c-.332 0-.554-.291-.554-.728M38.69 40.719c-.31-.168-.372-.505-.185-.785l3.536-5.271c.185-.28.558-.336.868-.168.31.168.372.504.187.785l-3.537 5.27c-.185.225-.62.337-.868.169" mask="url(#d)"/>
            <path fill="#FFAD33" d="M41.384 40.723c-.218.164-.48.055-.61-.22l-2.313-5.259a.634.634 0 0 1 .175-.766c.218-.165.48-.055.61.219l2.312 5.258c.087.275.043.603-.174.768" mask="url(#d)"/>
            <path fill="#FFAD33" d="M36.8 37.527c0-.436.276-.727.554-.727l6.092.146c.332 0 .554.363.554.727 0 .436-.278.727-.554.727l-6.092-.145c-.332 0-.554-.291-.554-.728" mask="url(#d)"/>
            <path fill="#D9F2FB" d="M23.99 10.722l-1.292 11.3-9.853.535 1.293-11.3c.376-3.213 2.907-5.997 5.599-6.105 2.746-.16 4.63 2.356 4.253 5.57m3.392 7.766l.915-7.98c.7-6.052-2.853-10.765-7.914-10.497-5.06.268-9.799 5.41-10.498 11.46L8 27.86l16.098-.857-2.8 19.493 6.353 2.304c.97 0 1.885-.964 2.046-2.142l3.07-24.475c.16-1.018-.27-1.82-.97-2.089l-4.415-1.606z" mask="url(#d)"/>
            <path fill="#D9F2FB" d="M22.617 46.4c-.253.248-7.792.427-22.617.538l6.617 1.779c.217.041.434.083.651.083h20.177c.488 0 .976-.207 1.355-.497L22.617 46.4z" mask="url(#d)"/>
            <path fill="#FFF" d="M12.251 11.91c.487-3.61 2.814-6.954 5.519-7.802 2.11-.69 4.437-.266 5.41.583 1.624 1.38 2.057 3.504 1.786 6.37l-.703 6.899H11.494l.757-6.05zm11.741 32.693c0-.106 3.139-24.414 3.139-24.414.108-.319.324-.743.865-.85.92-.211 4.004.85 4.004.85l-5.952-2.123a4.569 4.569 0 0 0-.54-.106l.702-6.21c.38-2.76.163-5.042-.54-6.74-.433-1.115-2.435-3.61-5.682-3.397-4.328.213-8.548 4.511-9.252 11.145l-.595 5.202H5.163c-.974 0-1.893.955-2.055 2.123L.023 44.338c-.162 1.167.541 2.123 1.515 2.123 0 0 20.669 0 20.777-.054.595.054 1.353.107 1.785.213.758.213 5.465 1.38 5.465 1.38s-4.274-1.698-5.031-2.176c-.38-.212-.487-.743-.542-1.22z" mask="url(#d)"/>
            <path fill="#D9F2FB" d="M14.077 24.8c1.72 0 2.955 1.719 2.686 3.813-.161 1.128-.645 2.095-1.396 2.793-.269.269-.484.59-.484 1.021l-.752 6.123c-.108.805-.699 1.45-1.397 1.45h-1.075c-.645 0-1.128-.645-1.02-1.45l.752-6.123a1.348 1.348 0 0 0-.27-1.02c-.537-.7-.805-1.72-.697-2.848.268-2.04 1.88-3.705 3.545-3.759h.108z" mask="url(#d)"/>
            <path fill="#0098D8" d="M13.254 24.8c1.733 0 2.98 1.719 2.709 3.813-.163 1.128-.65 2.095-1.409 2.793-.27.268-.487.591-.487 1.02l-.759 6.124c-.108.805-.704 1.45-1.355 1.45H10.87c-.65 0-1.138-.645-1.03-1.45l.758-6.123a1.337 1.337 0 0 0-.27-1.021c-.542-.698-.813-1.718-.704-2.846.27-2.041 1.896-3.706 3.576-3.76h.054z" mask="url(#d)"/>
        </g>
    </g>
</svg>
