<svg xmlns="http://www.w3.org/2000/svg" width="32" height="23" viewBox="0 0 32 23">
    <path fill="#FFF" fill-rule="evenodd" d="M26.076.006a3.88 3.88 0 0 1 2.775.975c.202.134.335.333.503.5.335.392.605.834.835 1.292.666 1.29 1.087 2.686 1.36 4.102.149.802.274 1.609.336 2.421.034.245.026.494.06.739-.005.37.052.734.047 1.104.026.883-.011 1.766-.081 2.646a20 20 0 0 1-.447 2.928 2.839 2.839 0 0 1-.846 1.398 1.79 1.79 0 0 1-1.077.46c-.41-.002-.828-.13-1.135-.402-.365-.367-.516-.884-.552-1.382a3.004 3.004 0 0 1-.015-.677c.077-.961.223-1.917.278-2.88.047-.286.016-.578.06-.864.01-.594.03-1.19-.028-1.781-.033-.571-.198-1.178-.64-1.58a1.549 1.549 0 0 0-1.145-.418c-.311.022-.604.14-.873.288-.78.519-1.324 1.297-1.778 2.086-.584 1.111-1.03 2.285-1.438 3.467-.343.985-.65 1.982-.966 2.975-.248.746-.513 1.497-.94 2.166-.166.243-.328.494-.547.695-.1.091-.165.215-.276.294-.086.06-.162.13-.234.202-.95.812-2.178 1.302-3.436 1.413-.287.01-.576.06-.863.012-1.534-.063-3.046-.71-4.099-1.803-.352-.341-.634-.744-.89-1.156-.244-.349-.463-.713-.684-1.075-.138-.222-.28-.443-.406-.672a57.465 57.465 0 0 1-1.017-1.739c-.298-.487-.576-.986-.871-1.474a9.074 9.074 0 0 0-.84-1.25c-.247-.281-.545-.56-.936-.621-.43-.071-.924.079-1.171.443-.177.28-.234.611-.273.933-.068.683.05 1.367.192 2.034.3 1.317.777 2.587 1.156 3.883.155.576.32 1.16.304 1.76-.005.422-.12.874-.451 1.167-.273.23-.629.346-.983.382a1.695 1.695 0 0 1-1.326-.54c-.353-.315-.564-.74-.758-1.157C.97 18.824.177 16.238.03 13.573c-.061-.954-.02-1.913.077-2.863.129-1.244.38-2.482.824-3.658.434-1.13 1.011-2.237 1.895-3.098.163-.132.32-.27.488-.395a4.641 4.641 0 0 1 2.11-.838c.738-.111 1.514-.058 2.208.223.513.198.971.511 1.374.874.607.514 1.102 1.139 1.58 1.766.302.396.572.814.857 1.222.232.342.476.679.681 1.037.16.231.302.472.448.712.372.546.738 1.106 1.228 1.562.306.316.665.585 1.068.776.833.39 1.86.357 2.66-.097.396-.248.725-.593.961-.99.182-.284.315-.593.45-.9.663-1.49 1.242-3.014 1.913-4.5.262-.563.507-1.137.852-1.66a6.012 6.012 0 0 1 1.395-1.58 5.446 5.446 0 0 1 2.978-1.16z"/>
</svg>
