<svg xmlns="http://www.w3.org/2000/svg" width="375" height="97" viewBox="0 0 375 97">
    <path fill="#15B0E2" fill-rule="evenodd" d="M317.513.076c13.386-.75 26.928 4.086 36.764 12.938 2.67 1.77 4.442 4.406 6.657 6.624 4.448 5.203 8.016 11.064 11.07 17.134 8.83 17.106 14.398 35.626 18.026 54.39 1.963 10.64 3.622 21.343 4.448 32.116.455 3.247.341 6.542.796 9.79-.066 4.9.682 9.742.617 14.643.34 11.71-.144 23.42-1.072 35.084-1.096 13.043-2.898 26.068-5.915 38.838-1.76 7.071-5.76 13.56-11.213 18.537-3.885 3.516-8.962 5.762-14.278 6.1-5.43-.035-10.968-1.729-15.027-5.337-4.85-4.86-6.849-11.716-7.322-18.322-.359-2.974-.514-5.99-.197-8.98 1.018-12.747 2.951-25.418 3.688-38.187.622-3.8.21-7.665.784-11.466.144-7.869.395-15.772-.36-23.618-.448-7.566-2.627-15.61-8.488-20.953-4.006-3.719-9.597-5.942-15.165-5.535-4.125.297-8.01 1.851-11.566 3.824-10.333 6.874-17.541 17.187-23.564 27.658-7.735 14.736-13.65 30.305-19.056 45.973-4.543 13.067-8.608 26.278-12.8 39.455-3.28 9.889-6.788 19.847-12.457 28.723-2.198 3.218-4.34 6.542-7.238 9.213-1.33 1.21-2.186 2.846-3.664 3.9-1.132.785-2.137 1.71-3.101 2.677-12.59 10.773-28.85 17.263-45.517 18.735-3.808.134-7.633.797-11.44.169-20.332-.838-40.363-9.429-54.306-23.915-4.67-4.522-8.406-9.871-11.806-15.325-3.227-4.633-6.125-9.463-9.058-14.265-1.832-2.945-3.718-5.873-5.382-8.91a762.178 762.178 0 0 1-13.476-23.054c-3.94-6.46-7.627-13.078-11.537-19.556-3.316-5.762-6.872-11.414-11.123-16.582-3.28-3.719-7.226-7.409-12.404-8.224-5.7-.943-12.243 1.042-15.524 5.873-2.34 3.725-3.101 8.107-3.616 12.38-.892 9.055.659 18.117 2.55 26.964 3.982 17.472 10.298 34.31 15.309 51.497 2.065 7.63 4.256 15.383 4.029 23.345-.06 5.587-1.58 11.582-5.975 15.464-3.61 3.056-8.328 4.592-13.027 5.064-6.586.448-13.165-2.457-17.56-7.165-4.675-4.173-7.483-9.801-10.045-15.336-13.117-32.826-23.624-67.124-25.593-102.459-.802-12.653-.27-25.37 1.024-37.965 1.706-16.506 5.046-32.924 10.925-48.517C-9.93 78.533-2.279 63.848 9.437 52.434c2.149-1.757 4.244-3.579 6.465-5.243 8.136-5.949 17.883-9.755 27.958-11.111 9.776-1.473 20.05-.763 29.245 2.962 6.801 2.625 12.872 6.775 18.218 11.594 8.04 6.815 14.59 15.098 20.935 23.409 3.993 5.255 7.574 10.802 11.345 16.215 3.083 4.534 6.304 8.992 9.028 13.741 2.107 3.073 4.005 6.269 5.939 9.44 4.921 7.247 9.776 14.667 16.266 20.715 4.059 4.19 8.818 7.758 14.146 10.296 11.04 5.168 24.654 4.737 35.25-1.287 5.25-3.294 9.609-7.863 12.74-13.118 2.407-3.772 4.167-7.881 5.969-11.943 8.776-19.76 16.44-39.973 25.341-59.669 3.46-7.473 6.717-15.092 11.28-22.012 4.872-7.933 11.099-15.138 18.492-20.952C289.231 6.688 303.121 1.013 317.513.076z"/>
</svg>
