<svg xmlns="http://www.w3.org/2000/svg" width="39" height="45" viewBox="0 0 39 45">
    <defs>
        <filter id="a" width="163.6%" height="152.5%" x="-31.8%" y="-26.2%" filterUnits="objectBoundingBox">
            <feOffset dy="2" in="SourceAlpha" result="shadowOffsetOuter1"/>
            <feGaussianBlur in="shadowOffsetOuter1" result="shadowBlurOuter1" stdDeviation="1.5"/>
            <feColorMatrix in="shadowBlurOuter1" result="shadowMatrixOuter1" values="0 0 0 0 0 0 0 0 0 0 0 0 0 0 0 0 0 0 0.382894449 0"/>
            <feMerge>
                <feMergeNode in="shadowMatrixOuter1"/>
                <feMergeNode in="SourceGraphic"/>
            </feMerge>
        </filter>
    </defs>
    <g fill="none" fill-rule="nonzero" filter="url(#a)" transform="translate(3 1)">
        <path fill="#F6F6F6" d="M16.53.48C10.791.48 4.723 2.742 1.886 5.707a5.01 5.01 0 0 0-1.383 3.46l-.022 10.5-.002 4.148c0 4.38 2.764 8.245 7.964 11.577a36.885 36.885 0 0 0 5.21 2.752c.597.258 1.174.492 1.718.696l.513.186.6.2.131-.001.43-.155c.122-.045.3-.113.511-.197l.164-.065a39.453 39.453 0 0 0 1.71-.74 39.609 39.609 0 0 0 5.188-2.85c5.192-3.411 7.941-7.207 7.941-11.403V9.185A5.024 5.024 0 0 0 31.168 5.7C28.313 2.733 22.26.48 16.53.48zm0 .4c5.627 0 11.575 2.214 14.35 5.097a4.624 4.624 0 0 1 1.28 3.209v14.63c0 4.037-2.67 7.723-7.76 11.067a39.211 39.211 0 0 1-5.136 2.822c-.441.203-.871.392-1.285.564l-.569.232c-.207.083-.381.15-.5.192l-.364.131-.53-.176-.506-.184a36.25 36.25 0 0 1-1.697-.687 36.487 36.487 0 0 1-5.153-2.722C3.564 31.79.88 28.038.88 23.815l.002-4.147.022-10.5a4.61 4.61 0 0 1 1.271-3.184C4.932 3.103 10.895.88 16.53.88z"/>
        <path fill="#FFF" d="M16.53.68C10.524.68 4.65 3.107 2.03 5.845A4.81 4.81 0 0 0 .704 9.167l-.022 10.5a4566.48 4566.48 0 0 0-.002 4.148c0 4.505 2.992 8.281 7.872 11.409a36.74 36.74 0 0 0 5.182 2.736c.617.268 1.19.499 1.708.692l.51.186.596.198.43-.154c.128-.047.355-.133.668-.26a39.236 39.236 0 0 0 1.702-.735 39.468 39.468 0 0 0 5.161-2.837c4.87-3.198 7.851-6.92 7.851-11.235V9.185a4.825 4.825 0 0 0-1.336-3.347C28.387 3.1 22.528.68 16.529.68z"/>
        <path fill="#EEE" d="M16.53 2c6.66 0 11.828 2.972 13.543 4.753.573.596.908 1.381.96 2.207l.007.226v14.63c0 8.584-14.51 13.824-14.51 13.824l-.357-.125C13.943 36.707 2 32 2 23.815l.024-14.644c.002-.9.34-1.766.96-2.413C4.689 4.978 9.865 2 16.53 2z"/>
        <path fill="#00A9E0" d="M2 15.4c-.007 2.396 0 1.702 0 8.415C2 32.842 16.53 37.64 16.53 37.64s14.51-5.24 14.51-13.825V15.4c-11.644 0-24.694.015-29.04 0z"/>
        <path fill="#FFF" d="M30.04 28.73v.424H3v-.424h27.04zM16.408 10.91c2.34 0 4.245 1.889 4.305 4.242H31.04v.425H20.704a4.361 4.361 0 0 1-2.17 3.478l.287 2.886H31.04v.425H18.864l.373 3.74h-5.664l.372-3.74H2v-.425h11.987l.288-2.899a4.345 4.345 0 0 1-2.163-3.465H2v-.424h10.103l.003-.098c.109-2.308 1.993-4.145 4.302-4.145zM31.04 8.364v.425H2v-.425h29.04z"/>
    </g>
</svg>
