<svg xmlns="http://www.w3.org/2000/svg" xmlns:xlink="http://www.w3.org/1999/xlink" width="35" height="41" viewBox="0 0 35 41">
    <defs>
        <filter id="a" width="136.7%" height="133.3%" x="-20%" y="-16.7%" filterUnits="objectBoundingBox">
            <feOffset dy="1" in="SourceAlpha" result="shadowOffsetOuter1"/>
            <feGaussianBlur in="shadowOffsetOuter1" result="shadowBlurOuter1" stdDeviation=".5"/>
            <feColorMatrix in="shadowBlurOuter1" result="shadowMatrixOuter1" values="0 0 0 0 0 0 0 0 0 0 0 0 0 0 0 0 0 0 0.16 0"/>
            <feMerge>
                <feMergeNode in="shadowMatrixOuter1"/>
                <feMergeNode in="SourceGraphic"/>
            </feMerge>
        </filter>
        <path id="b" d="M.024 7.17C.016 9.567 0 15.103 0 21.816 0 30.842 14.53 35.64 14.53 35.64s14.51-5.24 14.51-13.825V7.185c0-.907-.342-1.782-.967-2.432C26.358 2.973 21.19 0 14.529 0 7.864 0 2.688 2.978.985 4.758A3.492 3.492 0 0 0 .024 7.17z"/>
    </defs>
    <g fill="none" fill-rule="evenodd" filter="url(#a)" transform="translate(3 2)">
        <mask id="c" fill="#fff">
            <use xlink:href="#b"/>
        </mask>
        <path stroke="#FFF" stroke-width="1.32" d="M-.636 7.169A4.151 4.151 0 0 1 .508 4.302C3 1.696 8.702-.66 14.529-.66c5.822 0 11.509 2.348 14.02 4.956a4.165 4.165 0 0 1 1.151 2.89v14.63c0 4.034-2.851 7.594-7.553 10.683a38.82 38.82 0 0 1-5.075 2.788c-.605.278-1.167.52-1.673.723-.305.123-.525.207-.646.25l-.214.078-.217-.071c-.121-.04-.342-.118-.649-.233a35.78 35.78 0 0 1-1.677-.68 36.09 36.09 0 0 1-5.088-2.686C2.198 29.65-.66 26.042-.66 21.815c0-5.38.009-9.936.024-14.646z"/>
        <path fill="#00A9E0" d="M0 13.577h29.04V35.64H0z" mask="url(#c)"/>
        <path fill="#FFF" d="M0 26.73h29.04v1H0zM0 19.941h29.04v1H0zM0 13.153h29.04v1H0zM0 6.364h29.04v1H0z" mask="url(#c)"/>
        <path fill="#FFF" d="M17.237 24.106h-5.664l.702-7.064a4.347 4.347 0 0 1-2.174-3.775c0-2.407 1.928-4.357 4.307-4.357 2.378 0 4.306 1.95 4.306 4.357 0 1.623-.878 3.039-2.18 3.788l.703 7.051z" mask="url(#c)"/>
    </g>
</svg>
